<mxfile host="app.diagrams.net" modified="2021-08-29T21:12:34.554Z" agent="5.0 (Windows NT 10.0; Win64; x64) AppleWebKit/537.36 (KHTML, like Gecko) Chrome/92.0.4515.159 Safari/537.36" etag="C8it8nR8yKMP10SgrIpc" version="15.0.3" type="github">
  <diagram id="Kxp6poQEY132oB3bIeXi" name="Page-1">
    <mxGraphModel dx="1422" dy="762" grid="1" gridSize="10" guides="1" tooltips="1" connect="1" arrows="1" fold="1" page="1" pageScale="1" pageWidth="1169" pageHeight="827" background="#182E3E" math="0" shadow="0">
      <root>
        <mxCell id="0" />
        <mxCell id="1" parent="0" />
        <mxCell id="c9BE0oREcigb71wQLUeT-2" value="&lt;span style=&quot;font-size: 27px&quot;&gt;&lt;font color=&quot;#ffffff&quot;&gt;Patterns&lt;/font&gt;&lt;/span&gt;" style="text;html=1;align=center;verticalAlign=middle;resizable=0;points=[];autosize=1;strokeColor=none;fontColor=#1A1A1A;sketch=1;rounded=1;" parent="1" vertex="1">
          <mxGeometry x="530" y="40" width="120" height="20" as="geometry" />
        </mxCell>
        <mxCell id="c9BE0oREcigb71wQLUeT-5" value="&lt;b&gt;&lt;font style=&quot;font-size: 17px&quot;&gt;&lt;font style=&quot;background-color: rgb(255 , 255 , 255)&quot; color=&quot;#000000&quot;&gt;Creational&lt;/font&gt;&lt;br&gt;&lt;/font&gt;&lt;/b&gt;" style="text;html=1;strokeColor=#FFFFFF;fillColor=#EEEEEE;align=center;verticalAlign=middle;whiteSpace=wrap;fontColor=#1A1A1A;sketch=1;rounded=1;" parent="1" vertex="1">
          <mxGeometry x="130" y="90" width="100" height="40" as="geometry" />
        </mxCell>
        <mxCell id="c9BE0oREcigb71wQLUeT-57" value="" style="group" parent="1" vertex="1" connectable="0">
          <mxGeometry x="40" y="170" width="320" height="190" as="geometry" />
        </mxCell>
        <mxCell id="c9BE0oREcigb71wQLUeT-53" value="" style="rounded=1;whiteSpace=wrap;html=1;dashed=1;sketch=1;fillColor=none;align=left;strokeColor=#FFFFFF;" parent="c9BE0oREcigb71wQLUeT-57" vertex="1">
          <mxGeometry x="-10" y="-10" width="310" height="190" as="geometry" />
        </mxCell>
        <mxCell id="c9BE0oREcigb71wQLUeT-46" value="&lt;span style=&quot;background-color: rgb(255 , 255 , 255)&quot;&gt;&amp;nbsp; &amp;nbsp; &amp;nbsp; «interface»&amp;nbsp; &amp;nbsp; &amp;nbsp; &amp;nbsp;&amp;nbsp;&lt;br&gt;&lt;/span&gt;" style="html=1;fontColor=#1A1A1A;strokeColor=#FFFFFF;fillColor=#EEEEEE;align=left;sketch=1;rounded=1;" parent="c9BE0oREcigb71wQLUeT-57" vertex="1">
          <mxGeometry y="130" width="110" height="30" as="geometry" />
        </mxCell>
        <mxCell id="c9BE0oREcigb71wQLUeT-47" value="&lt;span style=&quot;background-color: rgb(255 , 255 , 255)&quot;&gt;&amp;nbsp;Concreate product&amp;nbsp;&lt;/span&gt;" style="html=1;rounded=1;sketch=1;fontColor=#1A1A1A;strokeColor=#FFFFFF;fillColor=#EEEEEE;align=left;" parent="c9BE0oREcigb71wQLUeT-57" vertex="1">
          <mxGeometry x="180" y="130" width="110" height="30" as="geometry" />
        </mxCell>
        <mxCell id="c9BE0oREcigb71wQLUeT-49" value="" style="endArrow=block;endSize=16;endFill=0;html=1;fontColor=#FFFFFF;strokeColor=#FFFFFF;sketch=1;exitX=-0.024;exitY=0.5;exitDx=0;exitDy=0;exitPerimeter=0;" parent="c9BE0oREcigb71wQLUeT-57" source="c9BE0oREcigb71wQLUeT-47" target="c9BE0oREcigb71wQLUeT-46" edge="1">
          <mxGeometry x="-30" y="10" width="160" as="geometry">
            <mxPoint x="160" y="185" as="sourcePoint" />
            <mxPoint x="80" y="185" as="targetPoint" />
            <mxPoint as="offset" />
          </mxGeometry>
        </mxCell>
        <mxCell id="c9BE0oREcigb71wQLUeT-41" value="" style="group;sketch=1;rounded=1;" parent="c9BE0oREcigb71wQLUeT-57" vertex="1" connectable="0">
          <mxGeometry x="180" y="30" width="110" height="60" as="geometry" />
        </mxCell>
        <mxCell id="c9BE0oREcigb71wQLUeT-23" value="&lt;span style=&quot;background-color: rgb(255 , 255 , 255)&quot;&gt;Concreate creator&lt;br&gt;&lt;/span&gt;" style="whiteSpace=wrap;html=1;fillColor=#EEEEEE;strokeColor=#FFFFFF;fontColor=#1A1A1A;sketch=1;rounded=1;" parent="c9BE0oREcigb71wQLUeT-41" vertex="1">
          <mxGeometry width="110" height="30" as="geometry" />
        </mxCell>
        <mxCell id="c9BE0oREcigb71wQLUeT-25" value="&lt;span style=&quot;background-color: rgb(255 , 255 , 255)&quot;&gt;Factory method();&lt;br&gt;&lt;/span&gt;" style="whiteSpace=wrap;html=1;fillColor=#EEEEEE;strokeColor=#FFFFFF;fontColor=#1A1A1A;sketch=1;rounded=1;" parent="c9BE0oREcigb71wQLUeT-41" vertex="1">
          <mxGeometry y="30" width="110" height="30" as="geometry" />
        </mxCell>
        <mxCell id="c9BE0oREcigb71wQLUeT-54" value="&lt;font color=&quot;#ffffff&quot; style=&quot;font-size: 15px&quot;&gt;Factory method&lt;/font&gt;" style="text;html=1;strokeColor=none;fillColor=none;align=center;verticalAlign=middle;whiteSpace=wrap;rounded=0;dashed=1;sketch=1;fontColor=#1A1A1A;" parent="c9BE0oREcigb71wQLUeT-57" vertex="1">
          <mxGeometry x="85" width="120" height="20" as="geometry" />
        </mxCell>
        <mxCell id="c9BE0oREcigb71wQLUeT-36" value="" style="endArrow=block;endSize=16;endFill=0;html=1;fontColor=#FFFFFF;strokeColor=#FFFFFF;entryX=0.978;entryY=1;entryDx=0;entryDy=0;entryPerimeter=0;sketch=1;" parent="c9BE0oREcigb71wQLUeT-57" target="c9BE0oREcigb71wQLUeT-30" edge="1">
          <mxGeometry x="-30" y="30" width="160" as="geometry">
            <mxPoint x="180" y="61" as="sourcePoint" />
            <mxPoint x="330" y="190" as="targetPoint" />
            <mxPoint as="offset" />
          </mxGeometry>
        </mxCell>
        <mxCell id="c9BE0oREcigb71wQLUeT-39" value="" style="group;sketch=1;rounded=1;" parent="c9BE0oREcigb71wQLUeT-57" vertex="1" connectable="0">
          <mxGeometry x="10" y="30" width="90" height="60" as="geometry" />
        </mxCell>
        <mxCell id="c9BE0oREcigb71wQLUeT-30" value="&lt;span style=&quot;background-color: rgb(255 , 255 , 255)&quot;&gt;&lt;font style=&quot;font-size: 15px&quot;&gt;Creator&lt;/font&gt;&lt;br&gt;&lt;/span&gt;" style="whiteSpace=wrap;html=1;fillColor=#EEEEEE;strokeColor=#FFFFFF;fontColor=#1A1A1A;sketch=1;rounded=1;" parent="c9BE0oREcigb71wQLUeT-39" vertex="1">
          <mxGeometry width="90" height="30" as="geometry" />
        </mxCell>
        <mxCell id="c9BE0oREcigb71wQLUeT-31" value="&lt;span style=&quot;background-color: rgb(255 , 255 , 255)&quot;&gt;•Factory method&lt;br&gt;•Operations&lt;br&gt;&lt;/span&gt;" style="whiteSpace=wrap;html=1;fillColor=#EEEEEE;strokeColor=#FFFFFF;fontColor=#1A1A1A;align=left;sketch=1;rounded=1;" parent="c9BE0oREcigb71wQLUeT-39" vertex="1">
          <mxGeometry y="30" width="90" height="30" as="geometry" />
        </mxCell>
        <mxCell id="c9BE0oREcigb71wQLUeT-48" value="" style="endArrow=open;endSize=12;dashed=1;html=1;fontColor=#FFFFFF;strokeColor=#FFFFFF;entryX=0.539;entryY=0.011;entryDx=0;entryDy=0;entryPerimeter=0;exitX=0.527;exitY=1.022;exitDx=0;exitDy=0;exitPerimeter=0;" parent="c9BE0oREcigb71wQLUeT-57" source="c9BE0oREcigb71wQLUeT-25" target="c9BE0oREcigb71wQLUeT-47" edge="1">
          <mxGeometry x="20" y="100" width="160" as="geometry">
            <mxPoint x="200" y="370" as="sourcePoint" />
            <mxPoint x="360" y="370" as="targetPoint" />
          </mxGeometry>
        </mxCell>
      </root>
    </mxGraphModel>
  </diagram>
</mxfile>
